<svg enable-background="new 0 0 512 512" height="512" viewBox="0 0 512 512" width="512" xmlns="http://www.w3.org/2000/svg"><g id="_x34_6_First_aid_kit"><g><g><g><path d="m101.857 83.023v17.641h-50.047v-17.641c0-5.217 4.229-9.446 9.446-9.446h31.155c5.217 0 9.446 4.229 9.446 9.446z" fill="#6d6d6d"/></g><g><path d="m460.19 83.023v17.641h-50.047v-17.641c0-5.217 4.229-9.446 9.446-9.446h31.155c5.217 0 9.446 4.229 9.446 9.446z" fill="#6d6d6d"/></g></g><g><g><path d="m328.941 129.459h-145.882c-6.012 0-10.887-4.875-10.887-10.887v-57.629c0-15.007 12.211-27.217 27.217-27.217h113.222c15.007 0 27.217 12.211 27.217 27.217v57.629c0 6.012-4.874 10.887-10.887 10.887zm-134.996-21.774h124.109v-46.742c0-3.003-2.443-5.443-5.443-5.443h-113.222c-3.001 0-5.443 2.44-5.443 5.443v46.742z" fill="#6d6d6d"/></g></g><g><g><path d="m107.994 438.111v29.277c0 6.013-4.874 10.887-10.887 10.887h-48.169c-6.013 0-10.887-4.874-10.887-10.887v-29.277z" fill="#ea4e4e"/></g><g><path d="m473.949 438.111v29.277c0 6.013-4.874 10.887-10.887 10.887h-48.169c-6.013 0-10.887-4.874-10.887-10.887v-29.277z" fill="#ea4e4e"/></g></g><g><path d="m511.841 117.516v314.491c0 12.025-9.748 21.774-21.774 21.774h-468.135c-12.025 0-21.774-9.748-21.774-21.774v-314.491c0-12.025 9.748-21.774 21.774-21.774h468.135c12.026 0 21.774 9.749 21.774 21.774z" fill="#f96464"/></g><g opacity=".4"><path d="m33.713 183.829c-6.013 0-10.887-4.874-10.887-10.887v-39.072c0-6.013 4.874-10.887 10.887-10.887 6.013 0 10.887 4.874 10.887 10.887v39.072c0 6.013-4.874 10.887-10.887 10.887z" fill="#fff"/></g><g opacity=".08"><path d="m511.841 117.538v314.467c0 12.03-9.744 21.774-21.774 21.774h-38.267c12.03 0 21.774-9.744 21.774-21.774v-314.467c0-12.03-9.744-21.774-21.774-21.774h38.267c12.031 0 21.774 9.744 21.774 21.774z"/></g><g><circle cx="256" cy="274.744" fill="#f2f0f0" r="116.895"/></g><g><path d="m334.467 262.906v23.733c0 6.013-4.874 10.887-10.887 10.887h-44.854v44.799c0 6.013-4.874 10.887-10.887 10.887h-23.734c-6.013 0-10.887-4.874-10.887-10.887v-44.799h-44.798c-6.013 0-10.887-4.874-10.887-10.887v-23.733c0-6.013 4.874-10.887 10.887-10.887h44.799v-44.855c0-6.013 4.874-10.887 10.887-10.887h23.734c6.013 0 10.887 4.874 10.887 10.887v44.855h44.854c6.012 0 10.886 4.874 10.886 10.887z" fill="#f96464"/></g></g></g></svg>