<svg enable-background="new 0 0 512 512" height="512" viewBox="0 0 512 512" width="512" xmlns="http://www.w3.org/2000/svg"><g><path d="m256 332h60c8.284 0 15-6.716 15-15s-6.716-15-15-15h-45v-45c0-8.284-6.716-15-15-15s-15 6.716-15 15v60c0 8.284 6.716 15 15 15z"/><path d="m256 512c107.523 0 195-87.477 195-195 0-69.391-45.771-129.174-86.153-181.92-32.834-42.886-63.847-83.393-63.847-120.08 0-8.284-6.716-15-15-15-58.604 0-61.198 137-90 137-9.082 0-14.95-26.664-15-45 0-13.779-17.103-20.254-26.232-9.942-47.43 53.582-93.768 147.251-93.768 234.942 0 106.648 86.714 195 195 195zm-99.702-382.302c9.472 32.338 28.768 37.302 39.702 37.302 48.948 0 55.16-88.066 78.215-126.518 9.288 37.701 37.383 74.396 66.812 112.835 39.317 51.355 79.973 104.458 79.973 163.683 0 90.981-74.019 165-165 165-91.65 0-165-74.804-165-165 0-66.233 28.38-133.337 65.298-187.302z"/><path d="m256 452c74.439 0 135-60.561 135-135s-60.561-135-135-135-135 60.561-135 135 60.561 135 135 135zm0-240c57.897 0 105 47.103 105 105s-47.103 105-105 105-105-47.103-105-105 47.103-105 105-105z"/></g></svg>
