<svg height="512" viewBox="0 0 32 32" width="512" xmlns="http://www.w3.org/2000/svg"><path d="m24 1a7.0081 7.0081 0 0 0 -7 7c0 6.5214 6.2831 9.7587 6.55 9.8936a1.027 1.027 0 0 0 .8994 0c.2674-.1348 6.5506-3.3721 6.5506-9.8936a7.0081 7.0081 0 0 0 -7-7zm0 14.8467c-1.3071-.81-5-3.4824-5-7.8467a5 5 0 0 1 10 0c0 4.3652-3.6948 7.0381-5 7.8467z"/><path d="m24 5a3 3 0 1 0 3 3 3.0033 3.0033 0 0 0 -3-3zm0 4a1 1 0 1 1 1-1 1.0009 1.0009 0 0 1 -1 1z"/><path d="m26 19.46a1 1 0 0 0 -1 1v4.9218l-6 3v-10.9918a1 1 0 0 0 -2 0v10.8053l-6-3.75v-18.456l2.4531 1.8232a1 1 0 0 0 1.1934-1.6055l-4.05-3.01a1.0213 1.0213 0 0 0 -1.044-.0918l-8 4a1 1 0 0 0 -.5525.8948v22a1.0017 1.0017 0 0 0 .5151.875 1.0132 1.0132 0 0 0 1.0149-.0273l7.47-4.6689s7.47 4.6686 7.4741 4.6718a.9942.9942 0 0 0 .9732.0439l8-4a1 1 0 0 0 .5527-.8945v-5.54a1 1 0 0 0 -1-1zm-23-10.8418 6-3v18.8271l-6 3.75z"/></svg>
