<svg width="511" height="555" viewBox="0 0 511 555" fill="none" xmlns="http://www.w3.org/2000/svg">
<path d="M181.333 1.19998C169.2 4.26665 158.267 13.2 152.667 24.6666C149.6 30.9333 149.333 32.9333 148.933 58.2666L148.4 85.2L80.6667 85.6C14.5333 86 12.8 86.1333 9.2 88.8C2.13333 94 0 98.2667 0 106.667C0 115.067 2.13333 119.333 9.2 124.533C12.5333 127.067 15.0667 127.333 38.1333 127.733L63.3333 128.133V313.2C63.3333 472.8 63.6 499.2 65.3333 505.733C71.3333 528.8 89.0667 546.667 112 552.667C123.867 555.733 386.8 555.733 398.667 552.667C421.6 546.667 439.333 528.8 445.333 505.733C447.067 499.2 447.333 472.8 447.333 313.2V128.133L472.533 127.733C495.6 127.333 498.133 127.067 501.467 124.533C508.533 119.333 510.667 115.067 510.667 106.667C510.667 98.2667 508.533 94 501.467 88.8C497.867 86.1333 496.133 86 430 85.6L362.267 85.2L361.733 58.2666C361.333 32.1333 361.2 31.2 357.733 24.5333C352.4 14.4 348.4 10.2666 339.067 5.19998L330.667 0.666646L258 0.399979C218 0.266646 183.6 0.666646 181.333 1.19998ZM319.333 64V85.3333H255.333H191.333V64V42.6666H255.333H319.333V64ZM404.4 313.2C404 498 404 498.533 401.2 502.133C399.733 504.133 396.8 507.067 394.8 508.533C391.2 511.333 390.4 511.333 255.333 511.333C120.267 511.333 119.467 511.333 115.867 508.533C113.867 507.067 110.933 504.133 109.467 502.133C106.667 498.533 106.667 498 106.267 313.2L106 128H255.333H404.667L404.4 313.2Z" fill="#EFF1F3"/>
</svg>
