<?xml version="1.0" standalone="no"?>
<!DOCTYPE svg PUBLIC "-//W3C//DTD SVG 20010904//EN"
 "http://www.w3.org/TR/2001/REC-SVG-20010904/DTD/svg10.dtd">
<svg version="1.0" xmlns="http://www.w3.org/2000/svg"
 width="512.000000pt" height="512.000000pt" viewBox="0 0 512.000000 512.000000"
 preserveAspectRatio="xMidYMid meet">

<g transform="translate(0.000000,512.000000) scale(0.100000,-0.100000)"
fill="rgba(0, 0, 0, 0.5)" stroke="none">
<path d="M1989 4880 c-41 -12 -77 -39 -98 -74 -14 -23 -301 -1053 -301 -1080
0 -3 -229 -7 -509 -8 -499 -3 -510 -3 -538 -24 -51 -38 -73 -81 -73 -144 0
-86 51 -151 136 -170 21 -5 230 -10 463 -10 l423 0 -5 -21 c-3 -11 -101 -376
-219 -810 l-213 -789 -435 0 c-258 0 -453 -5 -479 -11 -60 -13 -100 -44 -122
-93 -38 -84 -11 -177 65 -221 l43 -25 417 0 c393 0 417 -1 412 -17 -44 -144
-256 -954 -256 -979 0 -74 50 -139 125 -164 70 -23 164 15 198 81 13 25 297
1053 297 1075 0 2 417 4 926 4 877 0 925 -1 920 -17 -3 -10 -62 -229 -131
-488 -139 -513 -141 -524 -91 -590 36 -47 81 -69 141 -69 60 0 114 29 143 77
15 24 302 1053 302 1081 0 3 229 7 509 8 499 3 510 3 538 24 51 38 73 81 73
144 0 89 -54 154 -141 171 -24 4 -232 8 -463 9 l-418 0 5 21 c3 11 101 376
219 810 l213 789 440 0 c456 0 493 3 549 43 34 24 65 89 66 136 0 55 -36 118
-84 146 l-43 25 -417 0 c-393 0 -417 1 -412 18 44 143 256 953 256 978 0 76
-54 143 -131 164 -73 20 -158 -16 -192 -81 -13 -25 -297 -1053 -297 -1075 0
-2 -417 -4 -926 -4 -877 0 -925 1 -920 18 51 171 256 957 256 980 0 38 -28 98
-58 125 -24 22 -87 46 -117 46 -11 -1 -32 -4 -46 -9z m1708 -1532 c-4 -13
-102 -377 -219 -810 l-212 -788 -924 0 -924 0 5 23 c3 12 102 376 219 810
l212 787 924 0 924 0 -5 -22z"/>
</g>
</svg>
