<svg width="549" height="698" viewBox="0 0 549 698" fill="none" xmlns="http://www.w3.org/2000/svg">
<path d="M473.773 697.773C514.94 697.773 548.44 664.273 548.44 623.107V150.227C548.44 146.992 547.794 143.758 546.523 140.721C545.253 137.659 543.435 134.925 541.122 132.607L416.726 8.21092C414.435 5.89839 411.674 4.08066 408.612 2.80986C405.581 1.56507 402.346 0.893188 399.107 0.893188H75.56C34.3933 0.893188 0.893311 34.3932 0.893311 75.5599V623.12C0.893311 664.287 34.3933 697.786 75.56 697.786L473.773 697.773ZM423.997 85.8533L463.471 125.327H423.997V85.8533ZM50.6641 623.107V75.56C50.6641 61.8467 61.8152 50.6693 75.5548 50.6693H374.221V150.227C374.221 163.967 385.347 175.117 399.112 175.117H498.669V623.117C498.669 636.857 487.518 648.008 473.779 648.008L75.5521 648.003C61.8121 648.003 50.6614 636.852 50.6614 623.112L50.6641 623.107Z" fill="#EFF1F3"/>
</svg>
