<svg width="627" height="626" viewBox="0 0 627 626" fill="none" xmlns="http://www.w3.org/2000/svg">
<path d="M306.625 0.709322C304.759 1.24266 301.425 2.70932 299.292 3.90932C297.025 4.97599 255.292 46.0427 206.359 95.1093C125.292 176.309 117.425 184.709 115.959 190.176C110.225 211.909 127.825 230.843 149.292 226.176L156.625 224.576L219.959 161.376C254.759 126.576 283.825 98.176 284.359 98.176C284.892 98.176 285.292 180.043 285.292 280.176C285.292 456.709 285.425 462.443 287.825 467.243C299.159 489.376 329.825 488.576 339.159 465.909C341.025 461.509 341.292 440.576 341.292 279.509C341.292 179.776 341.692 98.176 342.225 98.176C342.759 98.176 371.825 126.576 406.625 161.376L469.959 224.576L477.292 226.176C498.759 230.843 516.359 211.909 510.625 190.176C509.159 184.709 501.292 176.309 420.225 95.1093C370.092 44.8427 329.159 4.84266 326.359 3.37599C320.492 0.309322 311.425 -0.890678 306.625 0.709322Z" fill="#EFF1F3"/>
<path d="M21.0254 342.443C12.7588 344.709 4.35878 353.243 1.82544 361.643C-1.24122 372.176 -0.174556 503.509 3.02544 516.976C15.8254 570.043 52.6254 608.443 103.292 621.509C120.892 626.043 134.892 626.309 322.625 625.776C524.759 625.243 512.092 625.776 534.759 618.043C571.959 605.509 604.492 573.376 617.692 536.309C625.559 513.776 625.559 513.909 626.225 439.509C626.892 361.776 626.892 360.443 618.492 350.976C605.825 336.709 583.292 338.843 573.692 355.243L569.959 361.509L569.292 433.509C568.492 503.243 568.492 505.776 565.692 513.243C555.559 540.043 538.625 556.576 511.959 565.643C504.892 568.043 496.759 568.176 313.292 568.176C129.159 568.176 121.692 568.043 114.625 565.643C98.0921 560.043 85.2921 551.376 75.0254 539.243C68.7588 531.776 60.6254 514.309 58.7588 504.309C57.8254 499.243 57.2921 471.909 57.2921 430.043V363.776L53.5588 356.709C47.4254 344.843 33.6921 338.843 21.0254 342.443Z" fill="#EFF1F3"/>
</svg>
