<svg width="512" height="512" viewBox="0 0 512 512" fill="none" xmlns="http://www.w3.org/2000/svg">
<path d="M256 0C156.698 0 76 80.7 76 180C76 213.6 85.302 246.301 103.001 274.501L243.798 504.915C246.2 508.815 249.8 511.216 254.001 511.816C259.699 512.715 266.002 510.316 269.301 504.616L410.501 272.1C427.299 244.501 436 212.401 436 180C436 80.7 355.302 0 256 0ZM256 270C256 180 256 229.2 256 180C256 130.499 256 180 256 90C305.501 90 346 130.499 346 180C346 228.9 306.999 270 256 270Z" fill="#FD003A"/>
<path d="M256 0V90C256 180 256 130.499 256 180C256 228.9 256.236 174 256 270V511.991C261.119 512.11 266.383 509.656 269.3 504.616L410.5 272.1C427.299 244.501 436 212.401 436 180C436 80.7 355.302 0 256 0Z" fill="#E50027"/>
<path d="M243.299 176.838H152.062V119.402C152.062 108.802 160.686 100.177 171.287 100.177H224.073C234.674 100.177 243.298 108.801 243.298 119.402V176.838H243.299ZM166.103 162.797H229.258V119.402C229.258 116.544 226.932 114.218 224.074 114.218H171.287C168.429 114.218 166.103 116.544 166.103 119.402V162.797Z" fill="#2B4D66"/>
<path d="M151.724 139.264H249.37C262.472 139.264 273.094 149.885 273.094 162.988V239.408C273.094 252.511 262.472 263.133 249.37 263.133H151.724C138.622 263.133 128 252.512 128 239.409V162.988C128 149.885 138.622 139.264 151.724 139.264Z" fill="#F9F6F6"/>
<path d="M363.33 201.747C398.763 201.747 400.593 263.135 358.515 263.135H264.574C247.622 263.135 233.88 249.393 233.88 232.441C233.88 223.965 237.315 216.293 242.871 210.738C248.427 205.182 256.098 201.747 264.574 201.747H363.33Z" fill="#FFD064"/>
<path d="M227.317 188.598H213.148V174.428C213.148 171.882 211.083 169.817 208.536 169.817H192.557C190.01 169.817 187.946 171.882 187.946 174.428V188.598H173.776C171.23 188.598 169.165 190.662 169.165 193.208V209.188C169.165 211.735 171.23 213.799 173.776 213.799H187.946V227.969C187.946 230.515 190.01 232.579 192.557 232.579H208.536C211.083 232.579 213.148 230.515 213.148 227.969V213.799H227.317C229.864 213.799 231.928 211.735 231.928 209.188V193.208C231.928 190.662 229.864 188.598 227.317 188.598Z" fill="#DD636E"/>
<path d="M296.502 263.134H264.573C247.62 263.134 233.88 249.393 233.88 232.441C233.88 223.958 237.312 216.298 242.871 210.739C248.417 205.179 256.104 201.748 264.573 201.748H296.502C288.032 201.748 280.345 205.179 274.8 210.739C269.24 216.298 265.809 223.958 265.809 232.441C265.808 249.393 279.549 263.134 296.502 263.134Z" fill="#EBB044"/>
<path d="M164.788 263.134H151.725C138.62 263.134 128 252.509 128 239.409V162.987C128 149.887 138.62 139.263 151.725 139.263H164.788C151.687 139.263 141.063 149.887 141.063 162.987V239.409C141.063 252.509 151.687 263.134 164.788 263.134Z" fill="#DDDAEC"/>
<path d="M333.425 125.012H266.856V184.247C266.856 194.336 275.034 202.514 285.123 202.514H315.159C325.247 202.514 333.425 194.336 333.425 184.247V125.012Z" fill="#9DC6FB"/>
<path d="M300.611 202.514H285.124C275.037 202.514 266.856 194.338 266.856 184.247V125.012H282.343V184.247C282.343 194.338 290.525 202.514 300.611 202.514Z" fill="#80B4FB"/>
<path d="M341.29 191.152H314.137V133.827H341.29C351.616 133.827 360.017 142.228 360.017 152.553V172.425C360.017 182.751 351.616 191.152 341.29 191.152ZM323.498 181.791H341.29C346.455 181.791 350.656 177.589 350.656 172.425V152.554C350.656 147.39 346.455 143.188 341.29 143.188H323.498V181.791Z" fill="#9DC6FB"/>
<path d="M305.295 53.9297C301.238 56.2638 297.022 58.9995 294.625 63.0592C293.993 64.2101 293.593 65.3255 293.463 66.4385C293.21 68.32 293.414 70.0082 294.969 71.2078C296.979 72.9105 300.05 74.2037 302.747 75.5067C306.484 77.2918 310.201 79.1326 313.413 82.312C318.865 87.5105 320.231 96.5643 315.528 102.699C313.776 105.059 311.181 106.942 308.797 108.107C305.508 109.711 302.179 110.569 298.621 110.909C297.134 111.184 295.026 110.966 294.974 109.021C295.032 106.62 299.038 105.914 300.628 104.445C303.119 102.803 305.767 100.761 307.182 98.3466C310.625 91.89 302.282 88.682 297.543 86.2735C291.364 83.3548 284.084 79.1401 282.992 71.5602C281.63 61.3453 289.165 53.5772 298.421 51.0395C300.358 50.476 302.341 50.1179 304.351 50.0028C306.668 49.8942 307.365 52.9669 305.295 53.9297Z" fill="#F9F6F6"/>
</svg>
