<svg width="512" height="512" viewBox="0 0 512 512" fill="none" xmlns="http://www.w3.org/2000/svg">
<path d="M256 0C156.698 0 76 80.7 76 180C76 213.6 85.302 246.301 103.001 274.501L243.798 504.915C246.2 508.815 249.8 511.216 254.001 511.816C259.699 512.715 266.002 510.316 269.301 504.616L410.501 272.1C427.299 244.501 436 212.401 436 180C436 80.7 355.302 0 256 0ZM256 270C256 180 256 229.2 256 180C256 130.499 256 180 256 90C305.501 90 346 130.499 346 180C346 228.9 306.999 270 256 270Z" fill="#FD003A"/>
<path d="M256 0V90C256 180 256 130.499 256 180C256 228.9 256.236 174 256 270V511.991C261.119 512.11 266.383 509.656 269.3 504.616L410.5 272.1C427.299 244.501 436 212.401 436 180C436 80.7 355.302 0 256 0Z" fill="#E50027"/>
<path d="M356.167 131.612H301.862V231.159H390.836V186.353L380.459 150.08C377.331 139.142 367.425 131.612 356.167 131.612Z" fill="#FF7058"/>
<path d="M377.846 185.893L368.598 153.56C367.004 148.002 361.892 144.112 356.167 144.112H314.222V185.893H377.846Z" fill="#84DBFF"/>
<path d="M377.857 185.877H314.2V144.096L377.857 185.877Z" fill="#CDD6E0"/>
<path d="M377.846 185.893L368.598 153.56C367.004 148.002 361.892 144.112 356.167 144.112H314.222L377.846 185.893Z" fill="#F2F2F2"/>
<path d="M148.436 81.6353H285.426C294.498 81.6353 301.862 89.077 301.862 98.2589V231.154H132V98.2589C132 89.0775 139.358 81.6353 148.436 81.6353Z" fill="#FFD15C"/>
<path d="M243.328 81.6633V125.588L236.972 119.16L230.31 125.899L223.654 119.16L216.997 125.899L210.329 119.16L203.585 125.899L196.934 119.16L190.502 125.666V81.6633H243.328Z" fill="#F2F2F2"/>
<path d="M395 231.148V249.933H132.022V231.148H159.47C165.88 219.511 178.207 211.643 192.343 211.643C206.423 211.643 218.75 219.511 225.215 231.148H313.532C319.942 219.511 332.209 211.643 346.344 211.643C360.479 211.643 372.751 219.511 379.216 231.148H395Z" fill="#334A5E"/>
<path d="M372.592 249.816C372.592 264.478 360.84 276.364 346.344 276.364C331.847 276.364 320.106 264.478 320.106 249.816C320.106 235.154 331.852 223.268 346.344 223.268C360.846 223.268 372.592 235.154 372.592 249.816Z" fill="#40596B"/>
<path d="M356.895 249.816C356.895 255.707 352.173 260.478 346.354 260.478C340.53 260.478 335.802 255.707 335.802 249.816C335.802 243.926 340.525 239.155 346.354 239.155C352.173 239.15 356.895 243.926 356.895 249.816Z" fill="#ACB3BA"/>
<path d="M218.569 249.816C218.569 264.478 206.812 276.364 192.321 276.364C177.824 276.364 166.072 264.478 166.072 249.816C166.072 235.154 177.824 223.268 192.321 223.268C206.812 223.268 218.569 235.154 218.569 249.816Z" fill="#40596B"/>
<path d="M202.862 249.816C202.862 255.707 198.145 260.478 192.321 260.478C186.497 260.478 181.774 255.707 181.774 249.816C181.774 243.926 186.497 239.155 192.321 239.155C198.144 239.155 202.862 243.926 202.862 249.816Z" fill="#ACB3BA"/>
</svg>
