<svg width="18" height="23" viewBox="0 0 18 23" fill="none" xmlns="http://www.w3.org/2000/svg">
<path d="M5.82955 5.45455C5.77841 5.02273 5.57102 4.6875 5.20739 4.44886C4.84375 4.21023 4.39773 4.09091 3.86932 4.09091C3.48295 4.09091 3.14489 4.15341 2.85511 4.27841C2.56818 4.40341 2.34375 4.57528 2.18182 4.79403C2.02273 5.01278 1.94318 5.26136 1.94318 5.53977C1.94318 5.77273 1.99858 5.97301 2.10938 6.14062C2.22301 6.3054 2.3679 6.44318 2.54403 6.55398C2.72017 6.66193 2.90483 6.75142 3.09801 6.82244C3.29119 6.89062 3.46875 6.94602 3.63068 6.98864L4.51705 7.22727C4.74432 7.28693 4.99716 7.36932 5.27557 7.47443C5.55682 7.57955 5.82528 7.72301 6.08097 7.90483C6.33949 8.08381 6.55256 8.31392 6.72017 8.59517C6.88778 8.87642 6.97159 9.22159 6.97159 9.63068C6.97159 10.1023 6.84801 10.5284 6.60085 10.9091C6.35653 11.2898 5.99858 11.5923 5.52699 11.8168C5.05824 12.0412 4.48864 12.1534 3.81818 12.1534C3.19318 12.1534 2.65199 12.0526 2.1946 11.8509C1.74006 11.6491 1.3821 11.3679 1.12074 11.0071C0.862216 10.6463 0.715909 10.2273 0.681818 9.75H1.77273C1.80114 10.0795 1.91193 10.3523 2.10511 10.5682C2.30114 10.7812 2.5483 10.9403 2.84659 11.0455C3.14773 11.1477 3.47159 11.1989 3.81818 11.1989C4.22159 11.1989 4.58381 11.1335 4.90483 11.0028C5.22585 10.8693 5.48011 10.6847 5.66761 10.4489C5.85511 10.2102 5.94886 9.93182 5.94886 9.61364C5.94886 9.32386 5.8679 9.08807 5.70597 8.90625C5.54403 8.72443 5.33097 8.5767 5.06676 8.46307C4.80256 8.34943 4.51705 8.25 4.21023 8.16477L3.13636 7.85795C2.45455 7.66193 1.91477 7.3821 1.51705 7.01847C1.11932 6.65483 0.920455 6.17898 0.920455 5.59091C0.920455 5.10227 1.05256 4.67614 1.31676 4.3125C1.58381 3.94602 1.94176 3.66193 2.39062 3.46023C2.84233 3.25568 3.34659 3.15341 3.90341 3.15341C4.46591 3.15341 4.96591 3.25426 5.40341 3.45597C5.84091 3.65483 6.1875 3.92756 6.44318 4.27415C6.7017 4.62074 6.83807 5.0142 6.85227 5.45455H5.82955ZM15.7319 6H14.6751C14.6126 5.69602 14.5032 5.42898 14.3469 5.19886C14.1935 4.96875 14.006 4.77557 13.7844 4.61932C13.5657 4.46023 13.3228 4.34091 13.0558 4.26136C12.7887 4.18182 12.5103 4.14205 12.2205 4.14205C11.6921 4.14205 11.2134 4.27557 10.7844 4.54261C10.3583 4.80966 10.0188 5.20312 9.76598 5.72301C9.51598 6.2429 9.39098 6.88068 9.39098 7.63636C9.39098 8.39205 9.51598 9.02983 9.76598 9.54972C10.0188 10.0696 10.3583 10.4631 10.7844 10.7301C11.2134 10.9972 11.6921 11.1307 12.2205 11.1307C12.5103 11.1307 12.7887 11.0909 13.0558 11.0114C13.3228 10.9318 13.5657 10.8139 13.7844 10.6577C14.006 10.4986 14.1935 10.304 14.3469 10.0739C14.5032 9.84091 14.6126 9.57386 14.6751 9.27273H15.7319C15.6523 9.71875 15.5075 10.1179 15.2972 10.4702C15.087 10.8224 14.8256 11.1222 14.5131 11.3693C14.2006 11.6136 13.8498 11.7997 13.4606 11.9276C13.0742 12.0554 12.6609 12.1193 12.2205 12.1193C11.4762 12.1193 10.8143 11.9375 10.2347 11.5739C9.65518 11.2102 9.19922 10.6932 8.86683 10.0227C8.53445 9.35227 8.36825 8.55682 8.36825 7.63636C8.36825 6.71591 8.53445 5.92045 8.86683 5.25C9.19922 4.57955 9.65518 4.0625 10.2347 3.69886C10.8143 3.33523 11.4762 3.15341 12.2205 3.15341C12.6609 3.15341 13.0742 3.21733 13.4606 3.34517C13.8498 3.47301 14.2006 3.66051 14.5131 3.90767C14.8256 4.15199 15.087 4.45028 15.2972 4.80256C15.5075 5.15199 15.6523 5.55114 15.7319 6Z" fill="#0088FF"/>
<path d="M6.78409 13.2727H7.84091V19.0511C7.84091 19.6477 7.70028 20.1804 7.41903 20.6491C7.14063 21.1151 6.74716 21.483 6.23864 21.7528C5.73011 22.0199 5.13352 22.1534 4.44886 22.1534C3.7642 22.1534 3.16761 22.0199 2.65909 21.7528C2.15057 21.483 1.75568 21.1151 1.47443 20.6491C1.19602 20.1804 1.05682 19.6477 1.05682 19.0511V13.2727H2.11364V18.9659C2.11364 19.392 2.20739 19.7713 2.39489 20.1037C2.58239 20.4332 2.84943 20.6932 3.19602 20.8835C3.54545 21.071 3.96307 21.1648 4.44886 21.1648C4.93466 21.1648 5.35227 21.071 5.7017 20.8835C6.05114 20.6932 6.31818 20.4332 6.50284 20.1037C6.69034 19.7713 6.78409 19.392 6.78409 18.9659V13.2727ZM10.3093 22H9.20135L12.4059 13.2727H13.4968L16.7013 22H15.5934L12.9854 14.6534H12.9173L10.3093 22ZM10.7184 18.5909H15.1843V19.5284H10.7184V18.5909Z" fill="#FFFF00"/>
</svg>
