<svg width="512" height="512" viewBox="0 0 512 512" fill="none" xmlns="http://www.w3.org/2000/svg">
<path d="M256 0C156.698 0 76 80.7 76 180C76 213.6 85.302 246.301 103.001 274.501L243.798 504.915C246.2 508.815 249.8 511.216 254.001 511.816C259.699 512.715 266.002 510.316 269.301 504.616L410.501 272.1C427.299 244.501 436 212.401 436 180C436 80.7 355.302 0 256 0ZM256 270C256 180 256 229.2 256 180C256 130.499 256 180 256 90C305.501 90 346 130.499 346 180C346 228.9 306.999 270 256 270Z" fill="#FD003A"/>
<path d="M256 0V90C256 180 256 130.499 256 180C256 228.9 256.236 174 256 270V511.991C261.119 512.11 266.383 509.656 269.3 504.616L410.5 272.1C427.299 244.501 436 212.401 436 180C436 80.7 355.302 0 256 0Z" fill="#E50027"/>
<g clip-path="url(#clip0_1287_241)">
<path d="M253.151 127.726L267.241 100.87L279.765 76.9958C287.037 63.1331 298.434 60.2682 308.003 65.2896C317.576 70.311 321.701 81.3127 314.426 95.1753L312.825 98.2242L294.313 133.519L253.151 127.726Z" fill="#CB8252"/>
<path d="M361.172 211.724H149.827C147.116 211.723 144.598 210.318 143.172 208.011C141.747 205.704 141.617 202.823 142.829 200.398L158.485 169.087C159.81 166.436 162.518 164.76 165.482 164.759H345.517C348.482 164.759 351.193 166.435 352.519 169.087L368.174 200.398C369.386 202.824 369.256 205.705 367.83 208.012C366.404 210.32 363.885 211.724 361.172 211.724Z" fill="#FFD064"/>
<path d="M161.568 211.724H349.43V278.259C349.43 284.743 344.174 290 337.689 290H173.31C166.825 290 161.568 284.743 161.568 278.259V211.724Z" fill="#EBB044"/>
<path d="M267.045 94.3104H212.644C212.801 93.7441 213.01 93.1938 213.27 92.6666L220.275 78.6552H259.413L266.419 92.6666C266.679 93.1938 266.888 93.7441 267.045 94.3104V94.3104Z" fill="#84B5CB"/>
<path d="M267.241 96.1498V164.759H212.448V96.1498C212.455 95.5319 212.521 94.916 212.644 94.3104H267.046C267.169 94.916 267.234 95.5319 267.241 96.1498V96.1498Z" fill="#9FC9D3"/>
<path d="M228.103 63H251.586C255.909 63 259.413 66.5045 259.413 70.8276V78.6552H220.275V70.8276C220.275 66.5045 223.78 63 228.103 63Z" fill="#9FC9D3"/>
<path d="M200.049 135.71C199.797 135.711 199.545 135.686 199.297 135.636C198.279 135.437 197.381 134.842 196.801 133.981C196.221 133.12 196.007 132.064 196.206 131.045C198.871 117.39 191.552 113.672 191.239 113.519C189.312 112.587 188.478 110.288 189.36 108.337C190.239 106.407 192.502 105.537 194.448 106.381C195 106.623 207.794 112.506 203.881 132.548C203.522 134.382 201.917 135.706 200.049 135.71V135.71Z" fill="#A56A43"/>
<path d="M345.517 106.052C345.45 110.347 341.985 113.812 337.69 113.879V164.759H290.724V113.879C286.406 113.866 282.909 110.369 282.896 106.052C282.964 101.757 286.429 98.2913 290.724 98.2242H337.69C342.007 98.2371 345.504 101.734 345.517 106.052Z" fill="#95A5A5"/>
<path d="M341.603 137.362H282.896C280.735 137.362 278.982 135.61 278.982 133.448C278.982 131.287 280.735 129.534 282.896 129.534H341.603C343.765 129.534 345.517 131.287 345.517 133.448C345.517 135.61 343.765 137.362 341.603 137.362Z" fill="#7F8C8D"/>
<path d="M341.603 153.017H286.81C284.649 153.017 282.896 151.265 282.896 149.103C282.896 146.942 284.649 145.19 286.81 145.19H341.603C343.765 145.19 345.517 146.942 345.517 149.103C345.517 151.265 343.765 153.017 341.603 153.017Z" fill="#7F8C8D"/>
<path d="M306.379 117.793C306.379 119.955 304.627 121.707 302.465 121.707H290.724V113.879H302.465C304.627 113.879 306.379 115.632 306.379 117.793Z" fill="#7F8C8D"/>
<path d="M337.689 113.879V121.707H325.948C323.786 121.707 322.034 119.955 322.034 117.793C322.034 115.632 323.786 113.879 325.948 113.879H337.689Z" fill="#7F8C8D"/>
<path d="M250.333 164.759C248.567 161.098 247.657 157.082 247.672 153.017C247.672 137.887 259.938 125.621 275.069 125.621C284.466 125.61 293.212 130.422 298.233 138.366C303.254 146.31 303.847 156.275 299.804 164.759H250.333Z" fill="#F29C1F"/>
<path d="M302.465 86.4828C301.833 86.4816 301.21 86.3286 300.649 86.0366L294.45 82.7843C293.211 82.1341 292.413 80.8723 292.357 79.4744C292.3 78.0764 292.994 76.7545 294.177 76.0067C295.359 75.2589 296.851 75.1988 298.09 75.849L304.289 79.1014C305.887 79.9375 306.706 81.7572 306.274 83.5078C305.841 85.2585 304.269 86.487 302.465 86.4828V86.4828Z" fill="#A56A43"/>
<path d="M228.26 164.759C230.765 159.923 232.055 154.55 232.017 149.103C232.017 133.957 222.663 121.707 211.156 121.707C207.36 121.732 203.681 123.027 200.707 125.386C197.732 123.027 194.053 121.732 190.257 121.707C178.75 121.707 169.396 133.957 169.396 149.103C169.358 154.55 170.648 159.923 173.154 164.759H228.26Z" fill="#FF7058"/>
</g>
<defs>
<clipPath id="clip0_1287_241">
<rect width="227" height="227" fill="white" transform="translate(142 63)"/>
</clipPath>
</defs>
</svg>
