<?xml version="1.0"?>
<svg xmlns="http://www.w3.org/2000/svg" viewBox="0 0 80 80" style="fill: #EFF1F3">
    <path d="M 19 10 C 15.698136 10 13 12.698136 13 16 C 13 19.301864 15.698136 22 19 22 C 22.301864 22 25 19.301864 25 16 C 25 12.698136 22.301864 10 19 10 z M 64 10 C 60.698136 10 58 12.698136 58 16 C 58 17.281035 58.409657 18.468339 59.099609 19.445312 L 58.820312 20.255859 L 59.324219 20.996094 L 60.21875 21.035156 L 60.488281 20.851562 C 61.477617 21.570652 62.689524 22 64 22 C 67.301864 22 70 19.301864 70 16 C 70 12.698136 67.301864 10 64 10 z M 19 12 C 21.220984 12 23 13.779016 23 16 C 23 18.220984 21.220984 20 19 20 C 16.779016 20 15 18.220984 15 16 C 15 13.779016 16.779016 12 19 12 z M 64 12 C 66.220984 12 68 13.779016 68 16 C 68 18.220984 66.220984 20 64 20 C 61.779016 20 60 18.220984 60 16 C 60 13.779016 61.779016 12 64 12 z M 24.267578 21.8125 L 23.509766 22.291016 L 23.439453 23.183594 L 23.626953 23.482422 L 23.693359 23.556641 L 24.529297 23.876953 L 25.289062 23.400391 L 25.359375 22.505859 L 25.171875 22.208984 L 25.103516 22.134766 L 24.267578 21.8125 z M 56.544922 22.007812 L 56.253906 22.207031 L 56.181641 22.277344 L 55.890625 23.125 L 56.394531 23.865234 L 57.291016 23.904297 L 57.582031 23.705078 L 57.652344 23.634766 L 57.943359 22.789062 L 57.439453 22.046875 L 56.544922 22.007812 z M 27.03125 24.841797 L 26.271484 25.320312 L 26.201172 26.212891 L 26.388672 26.511719 L 26.457031 26.585938 L 27.292969 26.90625 L 28.050781 26.429688 L 28.123047 25.535156 L 27.933594 25.238281 L 27.867188 25.164062 L 27.03125 24.841797 z M 53.615234 24.876953 L 53.324219 25.076172 L 53.253906 25.146484 L 52.960938 25.994141 L 53.466797 26.734375 L 54.361328 26.773438 L 54.652344 26.574219 L 54.724609 26.503906 L 55.015625 25.658203 L 54.511719 24.916016 L 53.615234 24.876953 z M 40 25 C 36.482205 25 33.249992 26.225183 30.689453 28.259766 L 30.628906 28.193359 L 29.792969 27.871094 L 29.035156 28.349609 L 28.962891 29.242188 L 29.152344 29.541016 L 29.210938 29.605469 C 26.610199 32.304111 25 35.964124 25 40 C 25 48.272427 31.727573 55 40 55 C 41.075461 55 42.122913 54.882039 43.134766 54.666016 L 43.722656 55.302734 L 44.615234 55.208984 L 45.072266 54.439453 L 45.039062 54.111328 C 48.56434 52.848747 51.486164 50.31533 53.232422 47.050781 L 53.429688 47.777344 L 53.707031 47.994141 L 53.794922 48.041016 L 54.691406 48.060547 L 55.244141 47.355469 L 55.009766 46.490234 L 54.732422 46.273438 L 54.642578 46.226562 L 53.748047 46.207031 L 53.466797 46.564453 C 54.438761 44.57853 55 42.356409 55 40 C 55 35.96908 53.393921 32.31294 50.798828 29.615234 L 51.433594 29.642578 L 51.724609 29.443359 L 51.794922 29.373047 L 52.085938 28.527344 L 51.582031 27.785156 L 50.6875 27.746094 L 50.396484 27.945312 L 50.324219 28.015625 L 50.033203 28.863281 L 50.064453 28.910156 C 47.399979 26.489999 43.875458 25 40 25 z M 40 27 C 47.191546 27 53 32.808454 53 40 C 53 47.191546 47.191546 53 40 53 C 32.808454 53 27 47.191546 27 40 C 27 32.808454 32.808454 27 40 27 z M 39.501953 31.099609 L 39.501953 32.447266 C 36.865953 32.691266 35.263672 34.185406 35.263672 36.441406 C 35.263672 38.346406 36.454813 39.655891 38.632812 40.212891 L 39.501953 40.4375 L 39.501953 44.890625 C 38.046953 44.724625 37.109719 43.913953 37.011719 42.751953 L 34.941406 42.751953 C 34.951406 45.016953 36.708953 46.548375 39.501953 46.734375 L 39.501953 48.003906 L 40.839844 48.003906 L 40.839844 46.724609 C 43.701844 46.480609 45.351562 44.98675 45.351562 42.59375 C 45.351562 40.57275 44.197094 39.332328 41.746094 38.736328 L 40.839844 38.53125 L 40.839844 34.322266 C 42.128844 34.478266 43.007875 35.318578 43.046875 36.392578 L 45.087891 36.392578 C 45.028891 34.215578 43.368844 32.672266 40.839844 32.447266 L 40.839844 31.099609 L 39.501953 31.099609 z M 39.501953 34.3125 L 39.501953 38.248047 C 38.095953 37.965047 37.353516 37.271625 37.353516 36.265625 C 37.353516 35.201625 38.251953 34.3805 39.501953 34.3125 z M 40.839844 40.689453 C 42.499844 41.021453 43.270484 41.695359 43.271484 42.818359 C 43.271484 44.058359 42.382844 44.820203 40.839844 44.908203 L 40.839844 40.689453 z M 25.658203 46.947266 L 25.322266 47.056641 L 25.234375 47.103516 L 24.720703 47.837891 L 25 48.689453 L 25.849609 48.974609 L 26.183594 48.865234 L 26.271484 48.816406 L 26.787109 48.083984 L 26.507812 47.232422 L 25.658203 46.947266 z M 67 48 C 65.074889 48 63.359324 48.920572 62.259766 50.339844 L 62.255859 50.326172 L 61.978516 50.109375 L 61.890625 50.0625 L 60.994141 50.042969 L 60.443359 50.748047 L 60.677734 51.613281 L 60.955078 51.830078 L 61.042969 51.876953 L 61.394531 51.884766 C 61.143864 52.544245 61 53.25499 61 54 C 61 57.301864 63.698136 60 67 60 C 70.301864 60 73 57.301864 73 54 C 73 50.698136 70.301864 48 67 48 z M 57.371094 48.125 L 56.818359 48.830078 L 57.052734 49.695312 L 57.332031 49.912109 L 57.419922 49.958984 L 58.314453 49.978516 L 58.867188 49.273438 L 58.632812 48.408203 L 58.355469 48.191406 L 58.267578 48.144531 L 57.371094 48.125 z M 22.048828 48.892578 L 21.712891 49.001953 L 21.625 49.048828 L 21.111328 49.783203 L 21.390625 50.634766 L 22.240234 50.919922 L 22.574219 50.810547 L 22.662109 50.761719 L 23.177734 50.029297 L 22.898438 49.177734 L 22.048828 48.892578 z M 13 49 C 9.6981361 49 7 51.698136 7 55 C 7 58.301864 9.6981361 61 13 61 C 16.301864 61 19 58.301864 19 55 C 19 54.243244 18.851992 53.521631 18.59375 52.853516 L 18.630859 52.865234 L 18.964844 52.755859 L 19.052734 52.707031 L 19.568359 51.974609 L 19.289062 51.123047 L 18.439453 50.837891 L 18.105469 50.947266 L 18.015625 50.994141 L 17.757812 51.363281 C 16.65907 49.930818 14.935576 49 13 49 z M 67 50 C 69.220984 50 71 51.779016 71 54 C 71 56.220984 69.220984 58 67 58 C 64.779016 58 63 56.220984 63 54 C 63 51.779016 64.779016 50 67 50 z M 13 51 C 15.220984 51 17 52.779016 17 55 C 17 57.220984 15.220984 59 13 59 C 10.779016 59 9 57.220984 9 55 C 9 52.779016 10.779016 51 13 51 z M 45.541016 57.273438 L 44.648438 57.367188 L 44.191406 58.136719 L 44.226562 58.486328 L 44.255859 58.582031 L 44.863281 59.240234 L 45.753906 59.146484 L 46.212891 58.376953 L 46.175781 58.027344 L 46.148438 57.929688 L 45.541016 57.273438 z M 46.679688 61.210938 L 45.789062 61.304688 L 45.330078 62.074219 L 45.367188 62.425781 L 45.394531 62.521484 L 45.449219 62.580078 C 43.416769 63.543378 42 65.610409 42 68 C 42 71.301864 44.698136 74 48 74 C 51.301864 74 54 71.301864 54 68 C 54 64.698136 51.301864 62 48 62 C 47.771242 62 47.546484 62.01581 47.324219 62.041016 L 47.316406 61.964844 L 47.289062 61.869141 L 46.679688 61.210938 z M 48 64 C 50.220984 64 52 65.779016 52 68 C 52 70.220984 50.220984 72 48 72 C 45.779016 72 44 70.220984 44 68 C 44 65.779016 45.779016 64 48 64 z"/>
</svg>
