<svg width="512" height="512" viewBox="0 0 512 512" fill="none" xmlns="http://www.w3.org/2000/svg">
<path d="M443.01 29H67.9902C45.9396 29 28 46.9396 28 68.9902V444.01C28 466.06 45.9396 484 67.9902 484H443.01C465.06 484 483 466.06 483 444.01V68.9902C483 46.9396 465.06 29 443.01 29ZM456.34 444.01C456.34 451.36 450.36 457.34 443.01 457.34H67.9902C60.64 457.34 54.6602 451.36 54.6602 444.01V162.301H456.34V444.01ZM456.34 135.641H54.6602V68.9902C54.6602 61.64 60.64 55.6602 67.9902 55.6602H443.01C450.36 55.6602 456.34 61.64 456.34 68.9902V135.641Z" fill="#EFF1F3"/>
<path d="M94.6504 108.98C102.012 108.98 107.98 103.012 107.98 95.6504C107.98 88.2884 102.012 82.3203 94.6504 82.3203C87.2884 82.3203 81.3203 88.2884 81.3203 95.6504C81.3203 103.012 87.2884 108.98 94.6504 108.98Z" fill="#EFF1F3"/>
<path d="M147.971 108.98C155.333 108.98 161.301 103.012 161.301 95.6504C161.301 88.2884 155.333 82.3203 147.971 82.3203C140.609 82.3203 134.641 88.2884 134.641 95.6504C134.641 103.012 140.609 108.98 147.971 108.98Z" fill="#EFF1F3"/>
<path d="M201.291 108.98C208.653 108.98 214.621 103.012 214.621 95.6504C214.621 88.2884 208.653 82.3203 201.291 82.3203C193.929 82.3203 187.961 88.2884 187.961 95.6504C187.961 103.012 193.929 108.98 201.291 108.98Z" fill="#EFF1F3"/>
<path d="M227.951 188.961H94.6504C87.2886 188.961 81.3203 194.929 81.3203 202.291V310.709C81.3203 318.071 87.2886 324.039 94.6504 324.039H227.951C235.313 324.039 241.281 318.071 241.281 310.709V202.291C241.281 194.929 235.313 188.961 227.951 188.961ZM214.621 297.379H107.98V215.621H214.621V297.379Z" fill="#EFF1F3"/>
<path d="M416.35 297.379H281.271C273.91 297.379 267.941 303.347 267.941 310.709C267.941 318.071 273.91 324.039 281.271 324.039H416.35C423.711 324.039 429.68 318.071 429.68 310.709C429.68 303.347 423.711 297.379 416.35 297.379Z" fill="#EFF1F3"/>
<path d="M416.35 243.17H281.271C273.91 243.17 267.941 249.138 267.941 256.5C267.941 263.862 273.91 269.83 281.271 269.83H416.35C423.711 269.83 429.68 263.862 429.68 256.5C429.68 249.138 423.711 243.17 416.35 243.17Z" fill="#EFF1F3"/>
<path d="M416.408 189H281.33C273.968 189 268 194.968 268 202.33C268 209.692 273.968 215.66 281.33 215.66H416.408C423.77 215.66 429.738 209.692 429.738 202.33C429.738 194.968 423.77 189 416.408 189Z" fill="#EFF1F3"/>
<path d="M416.35 350.699H94.6504C87.2886 350.699 81.3203 356.668 81.3203 364.029C81.3203 371.391 87.2886 377.359 94.6504 377.359H416.35C423.711 377.359 429.68 371.391 429.68 364.029C429.68 356.668 423.711 350.699 416.35 350.699Z" fill="#EFF1F3"/>
<path d="M416.35 404.02H94.6504C87.2886 404.02 81.3203 409.988 81.3203 417.35C81.3203 424.711 87.2886 430.68 94.6504 430.68H416.35C423.711 430.68 429.68 424.711 429.68 417.35C429.68 409.988 423.711 404.02 416.35 404.02Z" fill="#EFF1F3"/>
</svg>
