<svg id="Capa_1" enable-background="new 0 0 512 512" height="512" viewBox="0 0 512 512" width="512" xmlns="http://www.w3.org/2000/svg"><g><path d="m476.606 215.394c-5.857-5.858-15.355-5.858-21.213 0l-55.606 55.606h-287.574l-55.606-55.606c-5.857-5.858-15.355-5.858-21.213 0s-5.858 15.355 0 21.213l55.606 55.606v204.787c0 8.284 6.716 15 15 15h300c8.284 0 15-6.716 15-15v-204.787l55.606-55.607c5.858-5.857 5.858-15.355 0-21.212zm-235.606 85.606h30v35.729l-30 15zm-120 181v-181h90v75c0 5.199 2.692 10.027 7.114 12.76 4.415 2.729 9.936 2.985 14.594.657l60-30c5.082-2.542 8.292-7.735 8.292-13.417v-45h90v181z"/><path d="m346 422h-30c-8.284 0-15 6.716-15 15s6.716 15 15 15h30c8.284 0 15-6.716 15-15s-6.716-15-15-15z"/><path d="m214.455 213.044c10.346 7.873 21.044 16.014 32.336 24.796 2.708 2.106 5.958 3.16 9.209 3.16s6.501-1.053 9.209-3.16c11.292-8.782 21.99-16.923 32.336-24.796 58.549-44.554 108.455-80.543 108.455-132.286 0-44.488-34.798-80.758-82.5-80.758-27.851 0-51.075 12.93-67.5 35.559-16.426-22.63-39.65-35.559-67.5-35.559-47.699 0-82.5 36.266-82.5 80.758 0 53.334 54.398 91.151 108.455 132.286zm-78.455-132.286c0-28.937 22.57-50.758 52.5-50.758 39.221 0 52.567 40.055 53.183 41.976 1.957 6.259 7.755 10.524 14.317 10.524 6.581 0 12.393-4.289 14.333-10.577.129-.42 13.396-41.923 53.167-41.923 29.93 0 52.5 21.821 52.5 50.758 0 34.887-38.438 64.137-96.622 108.413-7.567 5.758-15.321 11.659-23.378 17.863-8.057-6.205-15.811-12.105-23.378-17.863-58.184-44.276-96.622-73.526-96.622-108.413z"/></g></svg>