<svg width="512" height="512" viewBox="0 0 512 512" fill="none" xmlns="http://www.w3.org/2000/svg">
<path d="M236 82.1001C225.9 83.3001 212.2 86.3001 200.7 90.0001C188.1 94.0001 165.8 105.4 154 113.7C142.2 122.1 122.5 141.7 114.5 153C108.6 161.2 108.5 161.6 108.5 168C108.5 175.7 110.3 178.9 116.6 182C125.5 186.4 131.9 183.5 141.1 171C162.1 142.4 193.2 122.9 230 115.3C241.9 112.8 269.1 112.9 281.5 115.3C325.7 124.2 362.3 151.3 382.4 189.9C385.4 195.8 389.2 204.6 390.9 209.6C394.1 219.2 397.4 233 396.6 233.8C396.3 234 392.8 231.7 388.9 228.6C384.9 225.5 379.9 222.5 377.9 221.9C368 218.9 358 226.5 358 237C358 244.9 358.9 245.9 385 266C409.6 285 415.9 287.8 423.6 283.1C426.9 281.1 459.1 240.2 462.2 234.1C467.5 223.8 459.8 211.8 448 211.8C441.6 211.9 437.9 214.1 432.7 221L428.6 226.4L426.5 217.5C412.3 157.2 369.2 109.4 311.5 90.2001C287.9 82.3001 260.2 79.4001 236 82.1001Z" fill="#223843"/>
<path d="M88.4 228.9C85.1 230.9 52.9 271.8 49.8 278C44.5 288.2 52.2 300.2 64 300.2C70.2 300.2 74.1 297.9 79.3 291L83.4 285.6L85.5 294.5C98.1 348.1 133.1 391.5 182.2 414.4C257.8 449.7 349.2 426.2 397.5 358.9C403.4 350.8 403.5 350.4 403.5 344C403.5 336.3 401.7 333.1 395.4 330C386.5 325.6 380 328.5 370.9 341C350.3 369.3 318.1 389.5 282.2 396.7C268.9 399.3 241.7 399.1 228.3 396.2C192.7 388.5 162.5 369.3 141.1 340.6C133.6 330.7 125.1 314.3 121.1 302.4C117.9 292.9 114.6 279 115.4 278.2C115.7 278 119.1 280.3 123 283.4C127 286.5 131.9 289.5 134 290.1C144 293.1 154 285.5 154 275C154 267 152.9 265.8 127 245.9C102.4 227 96.1 224.2 88.4 228.9Z" fill="#223843"/>
</svg>
