<?xml version="1.0"?>
<svg xmlns="http://www.w3.org/2000/svg" viewBox="0 0 50 50" style="fill: #EFF1F3">
    <path style="text-indent:0;text-align:start;line-height:normal;text-transform:none;block-progression:tb;-inkscape-font-specification:Bitstream Vera Sans" d="M 25 0 C 22.802666 0 21 1.8026661 21 4 L 21 4.53125 C 20.370934 4.1791774 19.681269 4 19 4 C 18.061575 4 17.086422 4.3085857 16.3125 4.96875 C 15.538578 5.6289143 15 6.6988289 15 7.9375 L 15 29.25 L 11.75 25.375 A 1.0001 1.0001 0 0 0 11.6875 25.3125 C 9.9384106 23.563411 7.0615894 23.563411 5.3125 25.3125 C 3.5909996 27.034 3.5828073 29.838116 5.25 31.59375 L 5.3125 31.6875 L 16.8125 46.5 C 18.516431 48.697677 21.124853 50 23.90625 50 L 32 50 C 36.958516 50 41 45.958516 41 41 L 41 13 C 41 10.802666 39.197334 9 37 9 C 36.267555 9 35.592593 9.2140556 35 9.5625 L 35 6 C 35 3.8026661 33.197334 2 31 2 C 30.167542 2 29.392608 2.2465982 28.75 2.6875 C 28.202958 1.1279376 26.738531 0 25 0 z M 25 2 C 26.116666 2 27 2.8833339 27 4 L 27 6 L 27 22 A 1.0001 1.0001 0 0 0 27.03125 22.1875 A 1.0001 1.0001 0 0 0 27.125 22.46875 A 1.0001 1.0001 0 0 0 27.28125 22.71875 A 1.0001 1.0001 0 0 0 27.4375 22.84375 A 1.0001 1.0001 0 0 0 27.53125 22.90625 A 1.0001 1.0001 0 0 0 27.8125 23 A 1.0001 1.0001 0 0 0 28.21875 23 A 1.0001 1.0001 0 0 0 28.5 22.875 A 1.0001 1.0001 0 0 0 28.5625 22.84375 A 1.0001 1.0001 0 0 0 28.71875 22.6875 A 1.0001 1.0001 0 0 0 28.90625 22.46875 A 1.0001 1.0001 0 0 0 29 22.15625 A 1.0001 1.0001 0 0 0 29 22 L 29 6 C 29 4.8833339 29.883334 4 31 4 C 32.116666 4 33 4.8833339 33 6 L 33 22 A 1.0001 1.0001 0 0 0 33.03125 22.1875 A 1.0001 1.0001 0 0 0 33.125 22.46875 A 1.0001 1.0001 0 0 0 33.28125 22.71875 A 1.0001 1.0001 0 0 0 33.4375 22.84375 A 1.0001 1.0001 0 0 0 33.53125 22.90625 A 1.0001 1.0001 0 0 0 33.8125 23 A 1.0001 1.0001 0 0 0 34.21875 23 A 1.0001 1.0001 0 0 0 34.5 22.875 A 1.0001 1.0001 0 0 0 34.5625 22.84375 A 1.0001 1.0001 0 0 0 34.71875 22.6875 A 1.0001 1.0001 0 0 0 34.90625 22.46875 A 1.0001 1.0001 0 0 0 35 22.15625 A 1.0001 1.0001 0 0 0 35 22 L 35 13 C 35 11.883334 35.883334 11 37 11 C 38.116666 11 39 11.883334 39 13 L 39 41 C 39 44.877484 35.877484 48 32 48 L 23.90625 48 C 21.741647 48 19.701069 46.991573 18.375 45.28125 L 6.8125 30.375 A 1.0001 1.0001 0 0 0 6.71875 30.28125 C 5.7338394 29.296339 5.7338394 27.703661 6.71875 26.71875 C 7.7036606 25.733839 9.2963394 25.733839 10.28125 26.71875 L 15.25 32.65625 A 1.0001 1.0001 0 0 0 17 32 L 17 7.9375 C 17 7.2531711 17.249172 6.8205857 17.625 6.5 C 18.000828 6.1794143 18.537425 6 19 6 C 19.462575 6 20.000545 6.1743158 20.375 6.5 C 20.749455 6.8256842 21 7.2665 21 8 L 21 22 A 1.0001 1.0001 0 0 0 22.21875 23 A 1.0001 1.0001 0 0 0 22.5 22.875 A 1.0001 1.0001 0 0 0 22.5625 22.84375 A 1.0001 1.0001 0 0 0 22.71875 22.6875 A 1.0001 1.0001 0 0 0 23 22 L 23 8 L 23 4 C 23 2.8833339 23.883334 2 25 2 z M 24.875 29 C 22.186652 29 20 31.186652 20 33.875 C 20 35.243557 20.559452 36.489499 21.46875 37.375 L 27.28125 43.1875 L 28 43.90625 L 28.71875 43.1875 L 34.53125 37.375 C 35.440548 36.489499 36 35.243557 36 33.875 C 36 31.186652 33.813348 29 31.125 29 C 29.906039 29 28.853672 29.540051 28 30.28125 C 27.146328 29.540051 26.093961 29 24.875 29 z M 24.875 31 C 25.82697 31 26.655678 31.473403 27.1875 32.1875 L 28 33.25 L 28.8125 32.1875 C 29.344322 31.473403 30.17303 31 31.125 31 C 32.732652 31 34 32.267348 34 33.875 C 34 34.690443 33.667702 35.440251 33.125 35.96875 L 28 41.0625 L 22.875 35.96875 C 22.332298 35.440251 22 34.690443 22 33.875 C 22 32.267348 23.267348 31 24.875 31 z" overflow="visible" font-family="Bitstream Vera Sans"/>
</svg>
