<svg height="512" viewBox="0 0 48 48" width="512" xmlns="http://www.w3.org/2000/svg"><g id="Line"><path d="m42 25v20c0 .55-.45 1-1 1h-34c-.55 0-1-.45-1-1v-20c0-.55.45-1 1-1h34c.55 0 1 .45 1 1z" fill="#d3aa59"/><path d="m29.444 2.143c-2.174-.052-4.053 1.138-5.444 2.729-1.391-1.589-3.27-2.782-5.444-2.729-3.615 0-6.556 2.941-6.556 6.556 0 2.753 1.199 5.36 3.29 7.152l8.06 6.908c.375.321.927.321 1.302 0l8.06-6.908c5.114-4.177 4.297-13.436-3.268-13.708z" fill="#e26667"/><g><path d="m23 22h2v24h-2z" fill="#edc366"/></g><g fill="#ffd889"><path d="m25 23c.035.291-.274.74-.38 1-.362.737-3.73 7.45-3.73 7.45-.16.34-.51.55-.89.55h-17c-.727.022-1.236-.817-.89-1.45 0 0 4-8 4-8 .16-.34.51-.55.89-.55h17c.545-.011 1.011.466 1 1z"/><path d="m45.85 31.53c-.18.29-.5.47-.85.47h-17c-.38 0-.73-.21-.89-.55-.977-1.989-2.763-5.493-3.72-7.45 0 0-.28-.55-.28-.55-.345-.634.159-1.471.89-1.45h17c.38 0 .73.21.89.55l4 8c.16.31.14.68-.04.98z"/></g></g></svg>