<?xml version="1.0"?>
<svg xmlns="http://www.w3.org/2000/svg" xmlns:xlink="http://www.w3.org/1999/xlink" xmlns:svgjs="http://svgjs.com/svgjs" version="1.1" width="512" height="512" x="0" y="0" viewBox="0 0 64 64" style="enable-background:new 0 0 512 512" xml:space="preserve"><g><path xmlns="http://www.w3.org/2000/svg" d="m4.24 55.32a2 2 0 0 0 1.41-.58l13.9-13.91 19.19.66a0 0 0 0 0 0 0 2.05 2.05 0 0 1 2 2.1 1.86 1.86 0 0 1 -.19.77v.09a2.05 2.05 0 0 1 -1.87 1.11l-9.77-.34a2 2 0 0 0 -.13 4l9.74.33h.23a6 6 0 0 0 5.15-2.91l11.31-10.09a1.41 1.41 0 0 1 .95-.34 1.66 1.66 0 0 1 1.6 1.71 1.8 1.8 0 0 1 -.14.65c-.08.12-.23.3-.32.41l-15.83 15.58-22.21-.76a2.08 2.08 0 0 0 -1.49.59l-6.23 6.23a2 2 0 0 0 1.46 3.38 2 2 0 0 0 1.42-.59l5.58-5.58 22.21.75a1.94 1.94 0 0 0 1.46-.58l16.52-16.24.14-.16a8.11 8.11 0 0 0 .8-1.12 5.67 5.67 0 0 0 -4.84-8.27 5.5 5.5 0 0 0 -3.52 1.16l-.13.11-8.49 7.52a6 6 0 0 0 -5.27-3.52l-20-.68a2 2 0 0 0 -1.48.58l-14.58 14.53a2 2 0 0 0 1.42 3.41z" fill="#eff1f3" data-original="#000000"/><path xmlns="http://www.w3.org/2000/svg" d="m30.58 33.3a2 2 0 0 0 1.42.59 2 2 0 0 0 1.41-.59l14.86-14.85a10.8 10.8 0 0 0 0-15.29 10.8 10.8 0 0 0 -15.27 0l-1 1-1-1a10.8 10.8 0 0 0 -18.43 7.65 10.68 10.68 0 0 0 3.16 7.63zm-12.03-27.3a6.81 6.81 0 0 1 9.62 0l2.41 2.42a2 2 0 0 0 2.83 0l2.42-2.42a6.8 6.8 0 0 1 11.61 4.82 6.67 6.67 0 0 1 -2 4.8l-13.44 13.44-13.45-13.45a6.81 6.81 0 0 1 0-9.62z" fill="#eff1f3" data-original="#000000"/></g></svg>
